<svg xmlns="http://www.w3.org/2000/svg" viewBox="0 0 64 64" aria-labelledby="title"
aria-describedby="desc" role="img" xmlns:xlink="http://www.w3.org/1999/xlink">
  <title>Antenna GPS</title>
  <desc>A solid styled icon from Orion Icon Library.</desc>
  <path data-name="layer1"
  d="M44.4 18.4a2 2 0 1 0-2.8-2.8l-11 11L15.1 11A24 24 0 0 0 49 44.9L33.5 29.4z"
  fill="#1a202c"></path>
  <path data-name="layer2" d="M54.3 5.7a16 16 0 0 0-18.2-3.2 2 2 0 1 0 1.7 3.6 12 12 0 0 1 16 16 2 2 0 0 0 .9 2.7l.9.2a2 2 0 0 0 1.8-1.1 16 16 0 0 0-3.1-18.2z"
  fill="#1a202c"></path>
  <path data-name="layer2" d="M40.5 8.5a2 2 0 0 0 1 3.9 5 5 0 0 1 6.2 6.2 2 2 0 0 0 1.4 2.4h.5a2 2 0 0 0 1.9-1.5 9 9 0 0 0-11-11z"
  fill="#1a202c"></path>
  <path data-name="layer1" d="M15.2 48.6L5 63h32l-5.8-8.1a27.9 27.9 0 0 1-16-6.3z"
  fill="#1a202c"></path>
</svg>