<svg xmlns="http://www.w3.org/2000/svg" viewBox="0 0 64 64" aria-labelledby="title"
aria-describedby="desc" role="img" xmlns:xlink="http://www.w3.org/1999/xlink">
  <title>Atom</title>
  <desc>A solid styled icon from Orion Icon Library.</desc>
  <path data-name="layer2"
  d="M51.749 32.107c4.144-3.855 6.943-7.658 7.8-10.86a6.079 6.079 0 0 0-.423-4.768c-2.1-3.621-8.32-4.141-17.167-1.487C40.093 6.408 36.725 0 32 0c-4.8 0-8.146 6.592-9.983 15.062-8.064-2.453-15.01-2.6-17.344 1.417a6.079 6.079 0 0 0-.423 4.768c.858 3.2 3.657 7 7.8 10.86-4.144 3.855-6.943 7.657-7.8 10.859a6.084 6.084 0 0 0 .423 4.77c1.218 2.095 3.8 3.157 7.5 3.157a32.133 32.133 0 0 0 8.008-1.2 1.5 1.5 0 0 0-.764-2.9c-6.232 1.641-11 1.419-12.152-.562a3.239 3.239 0 0 1-.119-2.484c.721-2.69 3.343-6.108 7.175-9.624a74.991 74.991 0 0 0 6.279 4.688 78.4 78.4 0 0 0 1.1 8.489 1.482 1.482 0 0 0 .07.4l.008.016C23.58 56.94 27.043 64 32 64c4.909 0 8.155-6.831 9.929-14.806a35.044 35.044 0 0 0 9.738 1.7c3.494 0 6.175-.951 7.458-3.16a6.084 6.084 0 0 0 .423-4.77c-.856-3.2-3.655-7.002-7.799-10.857zm4.784-14.12a3.236 3.236 0 0 1 .119 2.483c-.721 2.69-3.343 6.108-7.175 9.625a74.633 74.633 0 0 0-6.045-4.54c-.189-2.6-.49-5.163-.9-7.6 8.181-2.502 12.919-1.833 14.001.032zm-9.363 14.12q-1.669 1.38-3.548 2.745.043-1.419.045-2.852 0-1.314-.041-2.634 1.874 1.357 3.544 2.741zM32 3c3.355 0 7.033 8.343 8.249 20.5a98.2 98.2 0 0 0-2.492-1.487q-1.2-.691-2.437-1.345a74.81 74.81 0 0 1 2.3-.974 1.5 1.5 0 0 0-1.115-2.785 78.36 78.36 0 0 0-4.615 2.038 77.88 77.88 0 0 0-7.011-2.932C26.629 7.8 29.537 3 32 3zm-3.533 17.671c-.809.432-1.618.876-2.424 1.339q-1.164.668-2.283 1.356c.153-1.528.341-2.986.564-4.365a70.328 70.328 0 0 1 4.143 1.67zm-21.318-.2a3.236 3.236 0 0 1 .119-2.483c.642-1.105 2.331-1.663 4.78-1.663a33.584 33.584 0 0 1 9.4 1.711c-.4 2.4-.7 4.888-.878 7.387a74.928 74.928 0 0 0-6.245 4.677c-3.833-3.522-6.455-6.94-7.176-9.629zm9.482 11.637a78.987 78.987 0 0 1 10.9-7.5 88.417 88.417 0 0 1 4.365-2.331c1.435.714 2.892 1.486 4.366 2.331s2.9 1.727 4.272 2.629q.125 2.312.129 4.76c0 1.679-.055 3.349-.147 4.987a82.578 82.578 0 0 1-8.621 4.951q-2.152-1.071-4.365-2.334a84.83 84.83 0 0 1-4.049-2.48 85.002 85.002 0 0 1-.151-5.124 1.5 1.5 0 0 0-3 0q0 1.5.051 3a71.137 71.137 0 0 1-3.75-2.89zm9.411 10.1c.8.46 1.618.9 2.438 1.341a70.219 70.219 0 0 1-4.107 1.67 73.178 73.178 0 0 1-.587-4.35q1.114.675 2.257 1.336zM32 61c-2.586 0-5.366-4.962-7.061-12.8a75.57 75.57 0 0 0 6.97-2.926 76.707 76.707 0 0 0 7.16 2.983C37.268 56.573 34.314 61 32 61zm24.533-14.772c-1.278 2.2-6.711 2.23-14.019 0a73.22 73.22 0 0 0 .559-3.836 1.5 1.5 0 0 0-2.979-.354 70.139 70.139 0 0 1-.464 3.225q-2.084-.754-4.305-1.723a89.365 89.365 0 0 0 2.433-1.34c1.742-1 3.4-2.036 5-3.093.029-.017.056-.037.083-.056a75.5 75.5 0 0 0 6.64-4.938c3.832 3.517 6.454 6.934 7.175 9.624a3.239 3.239 0 0 1-.123 2.491z"
  fill="#1a202c"></path>
  <circle data-name="layer1" cx="32.002" cy="32" r="5" fill="#1a202c"></circle>
</svg>