<svg xmlns="http://www.w3.org/2000/svg" viewBox="0 0 64 64" aria-labelledby="title"
aria-describedby="desc" role="img" xmlns:xlink="http://www.w3.org/1999/xlink">
  <title>Medical Research</title>
  <desc>A solid styled icon from Orion Icon Library.</desc>
  <circle data-name="layer2"
  cx="31" cy="20.994" r="3" fill="#1a202c"></circle>
  <circle data-name="layer2" cx="35" cy="32.994" r="3" fill="#1a202c"></circle>
  <path data-name="layer1" d="M53.953 50.793L41.419 25.6A4.017 4.017 0 0 1 41 23.819V3.994h1a2 2 0 0 0 0-4H22a2 2 0 0 0 0 4h1v19.825a4.017 4.017 0 0 1-.419 1.782L10.058 50.779a8.926 8.926 0 0 0-.951 5.6 9.209 9.209 0 0 0 9.158 7.612h27.444a9.182 9.182 0 0 0 9.27-8.371 8.961 8.961 0 0 0-1.026-4.827zM22 51.994a3 3 0 1 1 3-3 3 3 0 0 1-3 3zm16 5a5 5 0 1 1 5-5 5.006 5.006 0 0 1-5 5zM17.654 40l6.718-13.5A6.026 6.026 0 0 0 25 23.819V3.994h14v19.825a6.026 6.026 0 0 0 .628 2.673L46.348 40z"
  fill="#1a202c"></path>
</svg>