<svg xmlns="http://www.w3.org/2000/svg" viewBox="0 0 64 64" aria-labelledby="title"
aria-describedby="desc" role="img" xmlns:xlink="http://www.w3.org/1999/xlink">
  <title>Mental Health</title>
  <desc>A solid styled icon from Orion Icon Library.</desc>
  <path data-name="layer1"
  d="M57.285 34.424c-.511-1.235-4.976-6.838-4.976-7.764 0-1.069 1.069-4.355 1.069-6.414C53.378 10.878 48.162 0 30 0 12.2 0 6.344 13.04 6.344 20.246s2.025 12.6 4.276 14.965 4.28 4.537 4.28 8.552a10.644 10.644 0 0 1-1.584 5.643.991.991 0 0 0 .287 1.346l18.463 12.635a1 1 0 0 0 1.48-.423c1.279-2.929 4.763-10.65 5.936-10.65 2.138 0 6.347 2.138 9.621 2.138s2.659-7.572 3.682-10.66 1.662-4.9 1.662-6.443c4.091-.412 3.353-1.69 2.838-2.925zm-15.891-8.247a3.774 3.774 0 0 0 .411-3.03 4.366 4.366 0 0 0-3.13-3.326 5.7 5.7 0 0 0-5.382 1.472 1 1 0 0 0 1.414 1.414 3.671 3.671 0 0 1 3.431-.959 2.4 2.4 0 0 1 1.726 1.878 1.615 1.615 0 0 1-1.009 2.151.988.988 0 0 0-.688 1.092c-.377.048-.751.1-1.166.131-2.924.242-5.327.454-7.274.687a1 1 0 0 0-.038-1.412 2.135 2.135 0 0 1-.6-2.063 3.209 3.209 0 0 1 2.223-2.263 1 1 0 1 0-.633-1.9 5.183 5.183 0 0 0-3.542 3.726 4.147 4.147 0 0 0 1.17 3.948.958.958 0 0 0 .19.121c-3.36.472-5.066 1.065-5.5 2.154-.712 1.78-1 6-3 6a1.789 1.789 0 0 1-2-2c0-1.827-.969-3.932-1.953-5.9a.992.992 0 0 0 .684-.866 4.077 4.077 0 0 1 1.56-3 5.527 5.527 0 0 1 3.234-1.132 4.134 4.134 0 0 0 1.923 2.734 1 1 0 1 0 1.109-1.664 1.83 1.83 0 0 1-1.025-1.975A1.694 1.694 0 0 1 25 21a1 1 0 0 0 0-2 3.691 3.691 0 0 0-3.179 2.1 7.533 7.533 0 0 0-4.777 1.572 6.028 6.028 0 0 0-1.928 2.66 21.091 21.091 0 0 1-.642-5.35 1.039 1.039 0 0 0 .1.022 1 1 0 0 0 .916-.6 1.4 1.4 0 0 1 1.118-.663 1.66 1.66 0 0 1 1.566.829 1 1 0 1 0 1.646-1.137 3.6 3.6 0 0 0-5.084-1.078 10.794 10.794 0 0 1 3.438-6.226c-.086 2.485.8 5.089 3.562 5.837A.97.97 0 0 0 22 17a1 1 0 0 0 .261-1.965c-2.305-.625-2.182-3.438-2.022-4.62a.982.982 0 0 0-.151-.651c.263-.15.541-.292.827-.43a.99.99 0 0 0 .8.656 5.462 5.462 0 0 1 3.822 2.162 3.624 3.624 0 0 1 .579 2.462 5.078 5.078 0 0 0-2.893 1.759 1 1 0 1 0 1.562 1.25 3.142 3.142 0 0 1 2.75-1.123 1.9 1.9 0 0 1 1.57.943 1 1 0 1 0 1.789-.895 3.765 3.765 0 0 0-2.76-1.953 5.559 5.559 0 0 0-.94-3.56 7 7 0 0 0-3.684-2.674A17.67 17.67 0 0 1 25 8a23.422 23.422 0 0 1 4.31-.423.986.986 0 0 0 .429.881 3.31 3.31 0 0 1 1.367 4.095 1 1 0 0 0 1.789.895 5.117 5.117 0 0 0-1.021-5.762 20.659 20.659 0 0 1 4.1.806.986.986 0 0 0 .008.687c1.024 2.558.465 4.787-1.5 5.964a1 1 0 0 0 1.029 1.715c2.59-1.554 3.534-4.389 2.611-7.534a12.823 12.823 0 0 1 3.644 2.527.989.989 0 0 0-.347.945c.313 1.6.188 2.8-.359 3.467A2.549 2.549 0 0 1 39 17a1 1 0 0 0 0 2 4.419 4.419 0 0 0 3.606-1.466 4.914 4.914 0 0 0 .976-3.294A12.924 12.924 0 0 1 45 18c.694 3.306 1.038 6.606-3.606 8.177z"
  fill="#1a202c"></path>
</svg>