<svg xmlns="http://www.w3.org/2000/svg" viewBox="0 0 64 64" aria-labelledby="title"
aria-describedby="desc" role="img" xmlns:xlink="http://www.w3.org/1999/xlink">
  <title>DNA</title>
  <desc>A solid styled icon from Orion Icon Library.</desc>
  <path data-name="layer2"
  d="M47.5 34h-32a1.5 1.5 0 0 1 0-3h32a1.5 1.5 0 0 1 0 3zm-4-24h-24a1.5 1.5 0 0 1 0-3h24a1.5 1.5 0 0 1 0 3zm1 48h-26a1.5 1.5 0 0 1 0-3h26a1.5 1.5 0 0 1 0 3z"
  fill="#1a202c"></path>
  <path data-name="layer1" d="M26.9 48.012C20.2 50.859 14 54.585 14 62.5a1.5 1.5 0 0 0 3 0c0-5.847 4.237-8.822 11.073-11.727a1.5 1.5 0 0 0-1.173-2.761z"
  fill="#1a202c"></path>
  <path data-name="layer1" d="M49 32.5c0-8.968-6.418-12.92-13.323-15.773C42.638 14 49 10.623 49 2.5a1.5 1.5 0 0 0-3 0c0 7.181-6.636 9.663-14.319 12.537l-.181.063-.18-.068C23.636 12.163 17 9.681 17 2.5a1.5 1.5 0 0 0-3 0c0 8.174 6.443 11.543 13.455 14.278a1.5 1.5 0 0 0-.542.112C20.527 19.568 14 23.517 14 32.5c0 9.933 9.134 13.558 17.191 16.756C38.807 52.279 46 55.134 46 62.5a1.5 1.5 0 0 0 3 0c0-8.179-6.426-11.793-13.5-14.741C42.387 44.849 49 41.009 49 32.5zM28.073 19.658a1.5 1.5 0 0 0 .457-2.466q.868.33 1.738.655C34.3 19.355 38.221 20.822 41.14 23H21.861a29.866 29.866 0 0 1 6.212-3.342zM18.883 26h25.208A11.08 11.08 0 0 1 46 32.5a9.758 9.758 0 0 1-2.253 6.525A1.494 1.494 0 0 0 43.5 39h-24a1.48 1.48 0 0 0-.194.02A9.85 9.85 0 0 1 17 32.5a11.071 11.071 0 0 1 1.883-6.5zM31.5 46.149A51.347 51.347 0 0 1 22.762 42h17.462a54.1 54.1 0 0 1-8.724 4.149z"
  fill="#1a202c"></path>
</svg>