<svg xmlns="http://www.w3.org/2000/svg" viewBox="0 0 64 64" aria-labelledby="title"
aria-describedby="desc" role="img" xmlns:xlink="http://www.w3.org/1999/xlink">
  <title>Globe</title>
  <desc>A solid styled icon from Orion Icon Library.</desc>
  <path data-name="layer1"
  d="M58.4 44.6l-7.2-7.2A21 21 0 0 0 21.6 7.8L14.4.6a2 2 0 0 0-2.8 2.8l.8.8A30 30 0 0 0 33 53.9V60H23a2 2 0 0 0 0 4h24a2 2 0 0 0 0-4H37v-6.1a29.7 29.7 0 0 0 17.7-7.4l.8.8a2 2 0 0 0 2.8-2.8zM35 50A26 26 0 0 1 15.3 7.1l3.6 3.6a21 21 0 0 0 29.5 29.5l3.6 3.6A25.8 25.8 0 0 1 35 50z"
  fill="#1a202c"></path>
</svg>