<svg xmlns="http://www.w3.org/2000/svg" viewBox="0 0 64 64" aria-labelledby="title"
aria-describedby="desc" role="img" xmlns:xlink="http://www.w3.org/1999/xlink">
  <title>Note Text</title>
  <desc>A solid styled icon from Orion Icon Library.</desc>
  <path data-name="layer1"
  d="M46 2v6a2 2 0 0 1 0 4h-4a2 2 0 0 1 0-4V2h-8v6a2 2 0 0 1 0 4h-4a2 2 0 0 1 0-4V2h-8v6a2 2 0 0 1 0 4h-4a2 2 0 0 1 0-4V2H8v60h48V2zm-8 50H18a2 2 0 1 1 0-4h20a2 2 0 0 1 0 4zm8-10H18a2 2 0 0 1 0-4h28a2 2 0 0 1 0 4zm0-10H18a2 2 0 0 1 0-4h28a2 2 0 0 1 0 4zm0-10H18a2 2 0 0 1 0-4h28a2 2 0 0 1 0 4z"
  fill="#1a202c"></path>
</svg>