<svg xmlns="http://www.w3.org/2000/svg" viewBox="0 0 64 64" aria-labelledby="title"
aria-describedby="desc" role="img" xmlns:xlink="http://www.w3.org/1999/xlink">
  <title>Skull Head</title>
  <desc>A solid styled icon from Orion Icon Library.</desc>
  <path data-name="layer1"
  d="M32 2A26 26 0 0 0 6 28v16a8 8 0 0 0 8 8h2v6a4 4 0 0 0 4 4h2v-6a2 2 0 1 1 4 0v6h4v-6a2 2 0 1 1 4 0v6h4v-6a2 2 0 1 1 4 0v6h2a4 4 0 0 0 4-4v-6h2a8 8 0 0 0 8-8V28A26 26 0 0 0 32 2zM20 44a8 8 0 1 1 8-8 8 8 0 0 1-8 8zm14 4a2 2 0 1 1-4 0v-2a2 2 0 1 1 4 0zm10-4a8 8 0 1 1 8-8 8 8 0 0 1-8 8z"
  fill="#1a202c"></path>
</svg>